<?xml version="1.0" standalone="no"?>
<!DOCTYPE svg PUBLIC "-//W3C//DTD SVG 20010904//EN"
 "http://www.w3.org/TR/2001/REC-SVG-20010904/DTD/svg10.dtd">
<svg version="1.0" xmlns="http://www.w3.org/2000/svg"
 width="500.000000pt" height="500.000000pt" viewBox="0 0 500.000000 500.000000"
 preserveAspectRatio="xMidYMid meet">

<g transform="translate(0.000000,500.000000) scale(0.100000,-0.100000)"
fill="#000000" stroke="none">
<path d="M0 2500 l0 -2500 2500 0 2500 0 0 2500 0 2500 -2500 0 -2500 0 0
-2500z m2559 1673 c65 -48 60 -164 -8 -210 -61 -41 -160 -21 -192 39 -18 34
-15 110 7 143 36 56 135 70 193 28z m-534 -128 c35 -34 34 -93 -1 -126 -34
-32 -95 -33 -126 -1 -33 32 -32 106 1 133 34 28 96 25 126 -6z m1030 0 c33
-32 33 -84 1 -122 -32 -37 -93 -39 -130 -4 -35 33 -36 92 -1 126 34 35 96 35
130 0z m-1468 -175 c16 -6 37 -24 46 -39 26 -45 21 -79 -17 -117 -43 -43 -83
-45 -127 -6 -54 48 -40 136 26 163 27 11 37 11 72 -1z m1887 -31 c24 -27 27
-38 22 -68 -6 -43 -55 -91 -92 -91 -56 0 -111 66 -99 119 6 28 37 63 65 74 30
12 75 -3 104 -34z m-962 -29 c4 -25 21 -73 38 -107 64 -129 194 -204 417 -238
91 -14 123 -15 183 -6 40 7 75 10 77 7 3 -2 2 -13 -1 -24 -8 -25 -33 -32 -121
-32 l-70 -1 35 -19 c19 -10 54 -22 78 -26 32 -5 42 -11 42 -25 0 -23 -13 -24
-116 -5 -261 48 -979 52 -1164 6 -19 -5 -61 -12 -92 -15 -54 -7 -58 -6 -58 13
0 16 9 22 38 27 20 3 53 15 72 25 l35 19 -75 1 c-79 0 -93 5 -103 32 -9 26 5
29 80 18 53 -8 90 -7 170 5 209 31 348 105 413 218 28 48 37 74 54 150 6 24
11 28 34 25 23 -3 28 -9 34 -48z m-416 -58 c48 -48 83 -73 114 -84 25 -8 45
-21 45 -29 0 -26 -115 -77 -225 -99 -174 -36 -339 -13 -378 52 -15 25 -15 29
-1 44 15 14 21 13 70 -12 70 -35 170 -44 218 -20 43 23 70 84 71 159 0 31 4
57 9 57 5 0 40 -31 77 -68z m850 5 c1 -70 19 -114 61 -147 24 -19 37 -22 98
-17 45 3 90 13 126 30 51 22 58 23 72 10 13 -13 13 -18 -2 -44 -35 -62 -208
-85 -380 -50 -108 22 -226 74 -226 100 0 8 17 20 37 27 56 19 121 67 152 113
43 61 61 55 62 -22z m-168 -457 c37 -5 114 -14 172 -20 119 -12 221 -30 234
-41 4 -4 5 -20 2 -36 l-7 -29 -117 18 c-64 9 -160 23 -212 29 -121 16 -647 16
-755 1 -238 -34 -291 -43 -307 -48 -15 -4 -18 1 -18 33 l0 38 63 12 c35 7 108
17 163 23 54 7 122 15 149 20 72 11 554 12 633 0z m642 -452 l0 -391 -52 74
c-128 184 -330 335 -548 412 -167 59 -188 62 -435 62 -225 0 -233 -1 -353 -32
-205 -53 -309 -114 -353 -208 -23 -51 -23 -79 0 -132 29 -64 77 -90 201 -109
142 -22 187 -39 211 -78 23 -38 24 -55 3 -100 l-17 -34 -46 46 c-37 38 -62 53
-130 76 -51 17 -98 41 -120 61 -27 24 -49 34 -90 39 -133 17 -199 96 -189 225
10 128 107 241 256 300 110 44 469 91 688 91 101 0 444 -26 529 -41 116 -19
240 -39 252 -39 36 0 79 63 109 158 2 7 20 12 44 12 l40 0 0 -392z m-1178
-160 l3 -213 225 -3 c217 -2 227 -2 269 20 46 24 70 60 93 138 11 38 18 47 48
56 19 7 38 10 43 7 4 -2 7 -164 7 -360 l0 -356 -37 6 c-45 8 -60 26 -68 82 -9
58 -44 115 -85 139 -33 20 -51 21 -265 21 l-230 0 -5 -305 c-5 -298 -5 -305
-25 -302 -31 6 -207 62 -242 78 -17 8 -36 14 -42 14 -7 0 -11 37 -11 110 0 61
-2 110 -4 110 -2 0 -33 -7 -67 -16 -241 -62 -443 151 -362 380 23 64 94 137
156 161 47 18 48 18 70 -3 12 -12 49 -35 82 -51 l60 -31 -54 0 c-101 0 -181
-75 -181 -169 0 -51 19 -90 60 -125 95 -80 223 -50 361 85 127 124 165 228
117 319 -32 59 -88 91 -174 98 l-64 5 0 122 0 123 28 10 c61 25 205 58 259 61
l33 1 2 -212z m-271 -377 c42 -42 39 -77 -11 -126 l-40 -39 0 97 c0 63 4 97
11 97 6 0 24 -13 40 -29z m1444 -788 c-8 -53 -71 -151 -140 -217 -106 -102
-250 -166 -423 -187 -85 -11 -116 -10 -213 4 -179 25 -300 70 -844 311 -66 29
-163 64 -211 76 -144 36 -254 -73 -181 -180 48 -72 165 -74 227 -4 l29 34 63
-29 c35 -15 80 -33 101 -40 20 -7 37 -18 37 -24 0 -22 -122 -127 -178 -155
-50 -24 -69 -27 -157 -27 -91 0 -105 3 -158 29 -68 35 -115 84 -153 158 -23
44 -27 66 -28 133 0 68 4 88 27 132 36 70 88 119 161 154 54 26 72 29 158 29
105 0 169 -18 393 -108 407 -163 526 -196 710 -196 138 0 234 22 349 80 166
84 328 258 408 440 l23 52 3 -212 c2 -116 0 -230 -3 -253z m72 35 c-3 -8 -6
-5 -6 6 -1 11 2 17 5 13 3 -3 4 -12 1 -19z"/>
<path d="M2450 3593 c-57 -21 -70 -96 -24 -132 35 -28 69 -26 99 4 30 29 33
74 8 103 -19 23 -59 34 -83 25z"/>
</g>
</svg>
